<?xml version="1.0" encoding="UTF-8"?>
<!DOCTYPE svg PUBLIC "-//W3C//DTD SVG 1.1//EN" "http://www.w3.org/Graphics/SVG/1.1/DTD/svg11.dtd">
<svg xmlns="http://www.w3.org/2000/svg" version="1.1" width="512px" height="512px" style="shape-rendering:geometricPrecision; text-rendering:geometricPrecision; image-rendering:optimizeQuality; fill-rule:evenodd; clip-rule:evenodd" xmlns:xlink="http://www.w3.org/1999/xlink">
<g><path style="opacity:1" fill="#000000" d="M 257.5,-0.5 C 260.167,-0.5 262.833,-0.5 265.5,-0.5C 267.901,0.745833 269.401,2.74583 270,5.5C 270.667,33.8333 270.667,62.1667 270,90.5C 266.96,96.3682 262.46,97.8682 256.5,95C 254.951,93.786 253.785,92.286 253,90.5C 252.333,62.1667 252.333,33.8333 253,5.5C 253.599,2.74583 255.099,0.745833 257.5,-0.5 Z"/></g>
<g><path style="opacity:1" fill="#000000" d="M 194.5,41.5 C 198.839,40.8461 202.673,41.8461 206,44.5C 206.333,45.5 206.667,46.5 207,47.5C 207.667,61.8333 207.667,76.1667 207,90.5C 203.96,96.3682 199.46,97.8682 193.5,95C 191.951,93.786 190.785,92.286 190,90.5C 189.333,76.1667 189.333,61.8333 190,47.5C 190.599,44.7458 192.099,42.7458 194.5,41.5 Z"/></g>
<g><path style="opacity:1" fill="#000000" d="M 320.5,41.5 C 324.839,40.8461 328.673,41.8461 332,44.5C 332.333,45.5 332.667,46.5 333,47.5C 333.667,61.8333 333.667,76.1667 333,90.5C 329.537,96.6631 324.703,97.9965 318.5,94.5C 317.416,93.3349 316.583,92.0016 316,90.5C 315.333,75.8333 315.333,61.1667 316,46.5C 317.025,44.313 318.525,42.6464 320.5,41.5 Z"/></g>
<g><path style="opacity:1" fill="#000000" d="M 254.5,110.5 C 298.784,109.626 334.284,126.626 361,161.5C 384.873,197.286 389.873,235.62 376,276.5C 354.281,326.459 316.114,352.792 261.5,355.5C 209.1,353.232 171.6,328.566 149,281.5C 131.364,234.606 138.031,191.606 169,152.5C 191.948,127.132 220.448,113.132 254.5,110.5 Z M 252.5,128.5 C 296.539,127.264 330.039,145.264 353,182.5C 374.735,228.576 368.569,270.41 334.5,308C 298.901,339.277 259.234,345.611 215.5,327C 169.429,300.68 150.929,261.18 160,208.5C 174.05,162.274 204.884,135.608 252.5,128.5 Z"/></g>
<g><path style="opacity:1" fill="#000000" d="M 256.5,153.5 C 262.44,152.069 266.607,154.069 269,159.5C 269.176,162.882 269.676,166.215 270.5,169.5C 289.427,175.6 298.26,188.6 297,208.5C 294.103,213.155 289.937,214.655 284.5,213C 280.944,209.314 279.111,204.814 279,199.5C 272.784,186.761 263.284,183.595 250.5,190C 239.833,200 239.833,210 250.5,220C 251.833,220.667 253.167,221.333 254.5,222C 265.905,222.208 276.238,225.541 285.5,232C 298.541,245.719 301.041,261.219 293,278.5C 287.653,287.014 280.153,292.681 270.5,295.5C 269.676,298.785 269.176,302.118 269,305.5C 265.753,311.612 260.92,313.112 254.5,310C 253.107,308.829 252.273,307.329 252,305.5C 251.501,301.848 251.335,298.182 251.5,294.5C 238.323,290.521 229.823,281.855 226,268.5C 225.333,264.167 225.333,259.833 226,255.5C 231.333,250.167 236.667,250.167 242,255.5C 242.925,272.779 251.758,279.946 268.5,277C 279.005,271.146 282.171,262.646 278,251.5C 275.382,246.884 271.549,243.717 266.5,242C 237.406,240.617 223.906,225.45 226,196.5C 229.351,182.65 237.851,173.983 251.5,170.5C 251.335,166.818 251.501,163.152 252,159.5C 252.804,156.854 254.304,154.854 256.5,153.5 Z"/></g>
<g><path style="opacity:1" fill="#000000" d="M 295.5,511.5 C 285.5,511.5 275.5,511.5 265.5,511.5C 228.879,501.675 192.213,491.508 155.5,481C 148.061,478.858 140.727,479.191 133.5,482C 127.252,485.373 121.085,488.873 115,492.5C 115.955,498.875 113.788,503.708 108.5,507C 91.1722,506.963 73.8388,506.63 56.5,506C 48.7291,505.934 41.0624,505.267 33.5,504C 32.2986,503.097 31.4652,501.931 31,500.5C 31.289,449.142 32.6223,397.808 35,346.5C 38.3411,342.101 42.8411,340.434 48.5,341.5C 70.1706,342.216 91.8372,343.05 113.5,344C 115.552,344.93 117.052,346.43 118,348.5C 118.333,354.167 118.667,359.833 119,365.5C 144.851,352.832 171.685,350.332 199.5,358C 213.54,363.691 227.54,369.357 241.5,375C 268.488,376.5 295.488,377.833 322.5,379C 338.622,382.633 350.955,391.466 359.5,405.5C 383.594,393.786 407.928,382.619 432.5,372C 453.071,367.878 469.237,374.378 481,391.5C 483.638,396.973 482.472,401.473 477.5,405C 428.5,436.667 379.5,468.333 330.5,500C 319.276,505.575 307.61,509.408 295.5,511.5 Z M 51.5,359.5 C 67.8237,360.206 84.157,360.539 100.5,360.5C 99.2594,403.494 98.2594,446.494 97.5,489.5C 81.1772,488.767 64.8438,488.434 48.5,488.5C 49.518,445.5 50.518,402.5 51.5,359.5 Z M 158.5,371.5 C 170.357,370.842 182.024,372.009 193.5,375C 204.401,379.117 215.067,383.783 225.5,389C 230.375,390.802 235.375,392.135 240.5,393C 265.48,394.351 290.48,395.351 315.5,396C 331.765,398.931 342.431,408.265 347.5,424C 316.534,423.131 285.534,422.464 254.5,422C 250.167,423.161 248.167,425.995 248.5,430.5C 248.167,435.005 250.167,437.839 254.5,439C 289.185,440.334 323.852,441.334 358.5,442C 361.196,441.31 363.363,439.81 365,437.5C 365.171,432.467 365.671,427.467 366.5,422.5C 388.457,411.904 410.457,401.404 432.5,391C 442.282,386.909 451.282,388.076 459.5,394.5C 413.167,424.667 366.833,454.833 320.5,485C 301.251,493.842 281.251,496.176 260.5,492C 224.287,481.53 187.953,471.53 151.5,462C 138.456,460.719 126.622,463.886 116,471.5C 115.853,443.143 116.686,414.809 118.5,386.5C 130.854,378.646 144.188,373.646 158.5,371.5 Z"/></g>
</svg>
