<?xml version="1.0" encoding="UTF-8"?>
<!DOCTYPE svg PUBLIC "-//W3C//DTD SVG 1.1//EN" "http://www.w3.org/Graphics/SVG/1.1/DTD/svg11.dtd">
<svg xmlns="http://www.w3.org/2000/svg" version="1.1" width="512px" height="512px" style="shape-rendering:geometricPrecision; text-rendering:geometricPrecision; image-rendering:optimizeQuality; fill-rule:evenodd; clip-rule:evenodd" xmlns:xlink="http://www.w3.org/1999/xlink">
<g><path style="opacity:1" fill="#000000" d="M 252.5,122.5 C 293.788,124.957 317.288,146.623 323,187.5C 328.91,154.256 348.744,137.756 382.5,138C 411.346,143.68 427.013,161.18 429.5,190.5C 429.135,205.725 423.469,218.558 412.5,229C 435.456,236.957 449.623,252.79 455,276.5C 455.966,291.26 455.633,305.927 454,320.5C 436.609,330.525 417.942,336.859 398,339.5C 389.209,336.757 387.376,331.591 392.5,324C 408.413,321.022 423.746,316.188 438.5,309.5C 444.224,262.56 423.557,240.56 376.5,243.5C 366.452,243.4 356.452,243.9 346.5,245C 339.165,247.327 332.832,251.161 327.5,256.5C 344.93,270.684 355.097,289.018 358,311.5C 358.667,327.5 358.667,343.5 358,359.5C 357.308,360.025 356.808,360.692 356.5,361.5C 336.302,373.179 314.635,381.012 291.5,385C 242.891,393.057 197.057,385.224 154,361.5C 152.363,344.925 152.03,328.258 153,311.5C 155.903,289.018 166.07,270.684 183.5,256.5C 178.168,251.161 171.835,247.327 164.5,245C 146.211,243.401 127.878,243.068 109.5,244C 90.2016,247.965 78.0349,259.465 73,278.5C 71.4844,288.822 71.3177,299.155 72.5,309.5C 87.2541,316.188 102.587,321.022 118.5,324C 123.624,331.591 121.791,336.757 113,339.5C 93.3012,336.899 74.8012,330.732 57.5,321C 56.8742,320.25 56.3742,319.416 56,318.5C 55.3333,304.5 55.3333,290.5 56,276.5C 61.3773,252.79 75.544,236.957 98.5,229C 83.1325,213.7 78.2991,195.533 84,174.5C 96.405,145.213 118.238,133.713 149.5,140C 171.696,148.217 184.53,164.051 188,187.5C 193.011,149.322 214.511,127.656 252.5,122.5 Z M 253.5,139.5 C 278.486,140.74 295.32,153.073 304,176.5C 309.388,206.551 297.888,227.385 269.5,239C 239.449,244.388 218.615,232.888 207,204.5C 201.669,175.997 212.169,155.497 238.5,143C 243.545,141.425 248.545,140.259 253.5,139.5 Z M 130.5,154.5 C 149.801,154.304 162.634,163.304 169,181.5C 172.246,202.837 163.746,217.337 143.5,225C 125.001,228.284 111.167,221.784 102,205.5C 95.1859,185.942 100.353,170.442 117.5,159C 121.846,157.164 126.179,155.664 130.5,154.5 Z M 372.5,154.5 C 396.215,155.017 409.548,167.017 412.5,190.5C 410.171,212.162 398.171,224.162 376.5,226.5C 359.298,224.8 347.798,215.8 342,199.5C 338.866,175.47 349.032,160.47 372.5,154.5 Z M 187.5,193.5 C 189.161,213.654 197.828,230.154 213.5,243C 208.868,244.116 204.368,245.616 200,247.5C 191.717,238.938 181.884,232.771 170.5,229C 180.595,219.309 186.262,207.476 187.5,193.5 Z M 322.5,193.5 C 324.589,207.176 330.589,219.01 340.5,229C 329.116,232.771 319.283,238.938 311,247.5C 306.632,245.616 302.132,244.116 297.5,243C 313.387,230.394 321.72,213.894 322.5,193.5 Z M 221.5,258.5 C 244.169,258.333 266.836,258.5 289.5,259C 318.192,265.693 335.359,283.526 341,312.5C 341.667,325.167 341.667,337.833 341,350.5C 284.282,378.293 227.449,378.46 170.5,351C 169.345,338.242 169.178,325.409 170,312.5C 175.824,283.512 192.991,265.512 221.5,258.5 Z"/></g>
</svg>
