<?xml version="1.0" encoding="UTF-8"?>
<!DOCTYPE svg PUBLIC "-//W3C//DTD SVG 1.1//EN" "http://www.w3.org/Graphics/SVG/1.1/DTD/svg11.dtd">
<svg xmlns="http://www.w3.org/2000/svg" version="1.1" width="512px" height="512px" style="shape-rendering:geometricPrecision; text-rendering:geometricPrecision; image-rendering:optimizeQuality; fill-rule:evenodd; clip-rule:evenodd" xmlns:xlink="http://www.w3.org/1999/xlink">
<g><path style="opacity:1" fill="#000000" d="M -0.5,273.5 C -0.5,229.5 -0.5,185.5 -0.5,141.5C 1.81949,136.36 5.81949,133.194 11.5,132C 28.1667,131.333 44.8333,131.333 61.5,132C 66.6944,132.923 70.361,135.756 72.5,140.5C 85.4872,141.666 98.4872,141.833 111.5,141C 114.446,140.194 117.112,138.861 119.5,137C 130.545,127.619 141.879,118.619 153.5,110C 155.717,108.725 158.051,107.725 160.5,107C 166.842,106.222 173.175,105.388 179.5,104.5C 189.568,77.128 199.735,49.7947 210,22.5C 214.095,16.8981 219.595,14.2314 226.5,14.5C 232.712,15.0689 238.712,16.5689 244.5,19C 276.911,30.8034 309.244,42.8034 341.5,55C 349.487,61.4424 351.987,69.6091 349,79.5C 342,98.5 335,117.5 328,136.5C 325.398,140.212 321.898,141.378 317.5,140C 315.185,138.891 313.685,137.057 313,134.5C 314.463,127.778 316.13,121.112 318,114.5C 289.544,103.421 279.711,83.2547 288.5,54C 288.355,53.228 288.022,52.5613 287.5,52C 281.993,49.4946 276.327,47.8279 270.5,47C 261.547,70.3194 244.547,80.6527 219.5,78C 215.441,76.9236 211.441,75.757 207.5,74.5C 204.262,84.8118 200.595,94.9784 196.5,105C 212.833,105.333 229.167,105.667 245.5,106C 256.08,107.584 261.247,113.75 261,124.5C 278.446,135.505 283.446,150.505 276,169.5C 268.743,178.961 259.076,183.627 247,183.5C 228.717,183.018 215.551,174.685 207.5,158.5C 202.615,157.198 197.782,157.198 193,158.5C 190.782,171.451 184.616,181.951 174.5,190C 198.287,203.742 205.62,223.575 196.5,249.5C 202.49,251.831 208.49,254.164 214.5,256.5C 223.838,231.326 241.838,220.826 268.5,225C 271.512,225.78 274.345,226.947 277,228.5C 285.47,205.422 294.137,182.422 303,159.5C 308.006,156.357 312.339,157.024 316,161.5C 316.809,166.363 316.142,171.03 314,175.5C 301.393,210.654 288.393,245.654 275,280.5C 270.751,285.707 265.251,288.374 258.5,288.5C 244.95,284.705 231.616,280.205 218.5,275C 196.833,274.667 175.167,274.333 153.5,274C 142.712,272.107 132.378,268.774 122.5,264C 106.17,263.5 89.8367,263.333 73.5,263.5C 75.1349,272.473 71.8015,278.64 63.5,282C 45.5,282.667 27.5,282.667 9.5,282C 5.38515,280.049 2.05182,277.216 -0.5,273.5 Z M 224.5,30.5 C 235.203,32.901 245.536,36.401 255.5,41C 247.288,61.1092 233.288,66.7758 213.5,58C 217.268,48.8612 220.934,39.6946 224.5,30.5 Z M 304.5,58.5 C 314.836,61.4407 324.669,65.4407 334,70.5C 331.459,79.786 328.293,88.9527 324.5,98C 316.922,97.2867 310.755,93.7867 306,87.5C 299.652,78.0311 299.152,68.3644 304.5,58.5 Z M 167.5,121.5 C 193.167,121.5 218.833,121.5 244.5,121.5C 244.416,130.159 240.416,136.325 232.5,140C 218.235,141.282 203.901,141.949 189.5,142C 185.187,143.306 181.687,145.806 179,149.5C 174.804,173.196 160.637,185.696 136.5,187C 133.197,190.795 132.697,194.962 135,199.5C 137.93,201.066 141.097,201.9 144.5,202C 141.278,209.664 138.445,217.497 136,225.5C 133.707,235.963 137.207,243.796 146.5,249C 154.833,252 163.167,255 171.5,258C 157.582,259.816 144.582,257.15 132.5,250C 129.576,249.012 126.576,248.346 123.5,248C 106.837,247.5 90.17,247.333 73.5,247.5C 73.5,217.5 73.5,187.5 73.5,157.5C 88.5583,157.934 103.558,157.434 118.5,156C 132.392,147.552 145.392,137.885 157.5,127C 160.489,124.343 163.822,122.509 167.5,121.5 Z M 254.5,141.5 C 258.658,143.075 261.491,146.075 263,150.5C 265.197,159.604 261.697,165.104 252.5,167C 242.359,168.453 233.692,165.619 226.5,158.5C 238.783,157.372 248.116,151.706 254.5,141.5 Z M 14.5,147.5 C 28.8333,147.5 43.1667,147.5 57.5,147.5C 57.5,187.167 57.5,226.833 57.5,266.5C 43.1667,266.5 28.8333,266.5 14.5,266.5C 14.5,226.833 14.5,187.167 14.5,147.5 Z M 160.5,203.5 C 181.711,209.922 188.545,223.589 181,244.5C 171.057,241.077 161.39,237.077 152,232.5C 151.333,231.167 151.333,229.833 152,228.5C 155.141,220.243 157.974,211.91 160.5,203.5 Z M 253.5,239.5 C 257.582,239.344 261.582,239.844 265.5,241C 267.997,241.412 269.997,242.578 271.5,244.5C 268.235,253.128 265.068,261.795 262,270.5C 261.261,271.574 260.261,272.241 259,272.5C 249.082,269.423 239.582,265.59 230.5,261C 234.002,249.269 241.669,242.102 253.5,239.5 Z"/></g>
<g><path style="opacity:1" fill="#000000" d="M 409.5,133.5 C 446.723,132.221 472.223,148.888 486,183.5C 498.317,219.282 493.484,252.449 471.5,283C 476.155,291.663 482.322,299.163 490,305.5C 493.66,316.854 489.66,323.521 478,325.5C 460.892,323.274 445.559,316.941 432,306.5C 414.551,309.762 398.384,306.595 383.5,297C 377.533,293.608 376.033,288.774 379,282.5C 380.885,280.98 383.051,279.98 385.5,279.5C 393.304,284.401 401.637,288.234 410.5,291C 419.183,291.369 427.85,291.369 436.5,291C 438.5,291.667 440.5,292.333 442.5,293C 449.703,299.766 458.036,304.099 467.5,306C 461.395,299.458 457.395,291.791 455.5,283C 456.122,276.058 458.956,270.225 464,265.5C 480.259,236.334 480.592,207.001 465,177.5C 447.157,149.748 423.323,142.914 393.5,157C 370.095,175.855 359.928,200.355 363,230.5C 364.256,239.932 366.922,248.932 371,257.5C 371.949,266.217 368.116,269.717 359.5,268C 353.137,259.261 349.304,249.428 348,238.5C 341.993,202.184 352.493,171.684 379.5,147C 388.735,140.544 398.735,136.044 409.5,133.5 Z"/></g>
<g><path style="opacity:1" fill="#000000" d="M 441.5,199.5 C 450.88,198.653 454.38,202.653 452,211.5C 441.5,222 431,232.5 420.5,243C 417.833,243.667 415.167,243.667 412.5,243C 406.333,236.833 400.167,230.667 394,224.5C 393.044,213.595 397.544,210.429 407.5,215C 410.384,218.586 413.717,221.252 417.5,223C 425.395,214.937 433.395,207.104 441.5,199.5 Z"/></g>
<g><path style="opacity:1" fill="#000000" d="M 511.5,355.5 C 511.5,399.5 511.5,443.5 511.5,487.5C 508.948,491.216 505.615,494.049 501.5,496C 483.5,496.667 465.5,496.667 447.5,496C 443.412,494.248 440.246,491.415 438,487.5C 437.5,479.507 437.334,471.507 437.5,463.5C 427.117,463.162 416.784,463.662 406.5,465C 384.894,471.869 363.227,478.535 341.5,485C 328.526,487.36 316.526,485.027 305.5,478C 276.442,457.277 247.109,436.943 217.5,417C 211.782,410.526 211.282,403.692 216,396.5C 229.853,380.295 246.353,377.129 265.5,387C 279.165,396.168 293.165,404.835 307.5,413C 310.899,413.546 314.232,413.213 317.5,412C 329.279,408.409 340.779,404.242 352,399.5C 352.667,398.167 352.667,396.833 352,395.5C 340.333,384.167 328.667,372.833 317,361.5C 308.303,347.166 310.137,334.333 322.5,323C 331.58,317.705 340.914,317.205 350.5,321.5C 371,334.251 391.667,346.751 412.5,359C 420.827,359.5 429.16,359.666 437.5,359.5C 438.105,352.058 442.105,347.558 449.5,346C 466.167,345.333 482.833,345.333 499.5,346C 505.181,347.194 509.181,350.36 511.5,355.5 Z M 334.5,334.5 C 338.911,334.203 342.911,335.369 346.5,338C 366.667,350.585 387,362.918 407.5,375C 417.494,375.5 427.494,375.666 437.5,375.5C 437.5,399.5 437.5,423.5 437.5,447.5C 426.456,447.181 415.456,447.681 404.5,449C 384.045,454.929 363.712,461.263 343.5,468C 330.862,471.763 319.529,469.43 309.5,461C 283.333,442.833 257.167,424.667 231,406.5C 231.801,403.1 233.967,400.6 237.5,399C 241.741,397.543 246.074,397.209 250.5,398C 266.134,406.818 281.467,416.151 296.5,426C 304.2,429.823 312.2,430.49 320.5,428C 333.984,423.728 347.317,419.061 360.5,414C 369.229,405.66 370.729,396.16 365,385.5C 353.638,373.804 341.971,362.47 330,351.5C 326.098,344.376 327.598,338.71 334.5,334.5 Z M 453.5,361.5 C 467.5,361.5 481.5,361.5 495.5,361.5C 495.5,401.167 495.5,440.833 495.5,480.5C 481.5,480.5 467.5,480.5 453.5,480.5C 453.5,440.833 453.5,401.167 453.5,361.5 Z"/></g>
</svg>
